<?xml version="1.0" encoding="utf-8"?>
<!-- Generator: Adobe Illustrator 22.0.1, SVG Export Plug-In . SVG Version: 6.00 Build 0)  -->
<svg version="1.1" id="圖層_1" xmlns="http://www.w3.org/2000/svg" xmlns:xlink="http://www.w3.org/1999/xlink" x="0px" y="0px"
	 viewBox="0 0 256 256" style="enable-background:new 0 0 256 256;" xml:space="preserve">
<style type="text/css">
	.st0{fill:#CCFFFF;}
	.st1{fill:#99CCCC;}
	.st2{fill:#5D7B89;}
	.st3{font-family:'HoeflerText-Regular';}
	.st4{font-size:110.4173px;}
	.st5{fill:#008B9E;}
	.st6{fill:#FFFFFF;}
	.st7{font-family:'Kefa-Regular';}
	.st8{font-size:98.895px;}
	.st9{opacity:0.23;}
	.st10{fill:#333333;}
</style>
<g>
	<path class="st0" d="M98.7,197.9H19.6C8.8,197.9,0,189.1,0,178.3v-139c0-10.8,8.8-19.6,19.6-19.6h138.8L98.7,197.9z"/>
	<polygon class="st1" points="118.9,58.1 158.4,19.7 145.5,58.1 	"/>
	<text transform="matrix(1 0 0 1 6.3789 138.848)" class="st2 st3 st4">m</text>
	<path class="st5" d="M118.9,58.1H198c10.8,0,19.6,8.8,19.6,19.6v139c0,10.8-8.8,19.6-19.6,19.6H59.3L118.9,58.1z"/>
	<text transform="matrix(1 0 0 1 124.4043 191.1703)" class="st6 st7 st8">ft</text>
	<path class="st9" d="M230.5,94.9l21.5-2.4c0.7,0,1.3-0.2,1.8-0.6v-4c0,0,0,0-0.1-0.1l0.1-11.4l-67.3-42.9c-1.8-1.5,0.7-0.5,0.9,1.8
		l2.9,86.5c0.2,2.5,3.5,3.3,4.9,1.2l13.9-16.6l23.6,44l20.6-11l-0.1-13.6L230.5,94.9z"/>
	<g>
		<path class="st10" d="M252.9,74.6l-67.1-54.3c-1.8-1.5-4.5,0-4.3,2.3l8.1,86c0.2,2.5,3.5,3.3,4.9,1.2l13.9-16.6l23.6,44l16.5-8.9
			l4.8-2.6l-23.6-44l15-1.7l6.5-0.7C253.7,79.3,254.8,76.2,252.9,74.6z"/>
	</g>
</g>
</svg>
